<svg id="visual" viewBox="0 0 900 600" width="900" height="600" xmlns="http://www.w3.org/2000/svg" xmlns:xlink="http://www.w3.org/1999/xlink" version="1.1"><g transform="translate(451.3153141005441 327.1792249193396)"><path d="M104.7 -182.1C147.4 -156.7 201.9 -152.4 211.4 -125.5C220.9 -98.7 185.5 -49.3 175.4 -5.8C165.2 37.7 180.5 75.3 169.4 99.4C158.3 123.5 120.9 134.1 88.3 152.6C55.7 171.1 27.8 197.5 -6.1 208.1C-40 218.6 -80 213.2 -101.9 188.6C-123.9 163.9 -127.8 119.9 -147.4 85.3C-167.1 50.7 -202.5 25.3 -212.5 -5.7C-222.5 -36.8 -206.9 -73.7 -189.2 -111.6C-171.4 -149.6 -151.5 -188.7 -119.6 -220.3C-87.7 -251.8 -43.8 -275.9 -6.4 -264.8C31 -253.7 62 -207.4 104.7 -182.1" fill="#FF6F61"></path></g></svg>