<svg id="visual" viewBox="0 0 900 450" width="900" height="450" xmlns="http://www.w3.org/2000/svg" xmlns:xlink="http://www.w3.org/1999/xlink" version="1.1"><path d="M0 320L10 320.7C20 321.3 40 322.7 60 323.5C80 324.3 100 324.7 120 325C140 325.3 160 325.7 180 327.2C200 328.7 220 331.3 240 327.2C260 323 280 312 300 311.8C320 311.7 340 322.3 360 322.7C380 323 400 313 420 310.7C440 308.3 460 313.7 480 321C500 328.3 520 337.7 540 341C560 344.3 580 341.7 600 333.2C620 324.7 640 310.3 660 309C680 307.7 700 319.3 720 322.2C740 325 760 319 780 320.8C800 322.7 820 332.3 840 337.7C860 343 880 344 890 344.5L900 345L900 451L890 451C880 451 860 451 840 451C820 451 800 451 780 451C760 451 740 451 720 451C700 451 680 451 660 451C640 451 620 451 600 451C580 451 560 451 540 451C520 451 500 451 480 451C460 451 440 451 420 451C400 451 380 451 360 451C340 451 320 451 300 451C280 451 260 451 240 451C220 451 200 451 180 451C160 451 140 451 120 451C100 451 80 451 60 451C40 451 20 451 10 451L0 451Z" fill="#fa7268"></path><path d="M0 327L10 326.8C20 326.7 40 326.3 60 331.5C80 336.7 100 347.3 120 343.2C140 339 160 320 180 314.5C200 309 220 317 240 323.8C260 330.7 280 336.3 300 340.7C320 345 340 348 360 343.7C380 339.3 400 327.7 420 330C440 332.3 460 348.7 480 350.2C500 351.7 520 338.3 540 332.2C560 326 580 327 600 333.7C620 340.3 640 352.7 660 350C680 347.3 700 329.7 720 322C740 314.3 760 316.7 780 320.5C800 324.3 820 329.7 840 331.2C860 332.7 880 330.3 890 329.2L900 328L900 451L890 451C880 451 860 451 840 451C820 451 800 451 780 451C760 451 740 451 720 451C700 451 680 451 660 451C640 451 620 451 600 451C580 451 560 451 540 451C520 451 500 451 480 451C460 451 440 451 420 451C400 451 380 451 360 451C340 451 320 451 300 451C280 451 260 451 240 451C220 451 200 451 180 451C160 451 140 451 120 451C100 451 80 451 60 451C40 451 20 451 10 451L0 451Z" fill="#e7636f"></path><path d="M0 327L10 326.5C20 326 40 325 60 329.2C80 333.3 100 342.7 120 347.2C140 351.7 160 351.3 180 348.8C200 346.3 220 341.7 240 341.8C260 342 280 347 300 346C320 345 340 338 360 331.8C380 325.7 400 320.3 420 320C440 319.7 460 324.3 480 332.7C500 341 520 353 540 358.7C560 364.3 580 363.7 600 359.7C620 355.7 640 348.3 660 347.8C680 347.3 700 353.7 720 353.7C740 353.7 760 347.3 780 343C800 338.7 820 336.3 840 336.8C860 337.3 880 340.7 890 342.3L900 344L900 451L890 451C880 451 860 451 840 451C820 451 800 451 780 451C760 451 740 451 720 451C700 451 680 451 660 451C640 451 620 451 600 451C580 451 560 451 540 451C520 451 500 451 480 451C460 451 440 451 420 451C400 451 380 451 360 451C340 451 320 451 300 451C280 451 260 451 240 451C220 451 200 451 180 451C160 451 140 451 120 451C100 451 80 451 60 451C40 451 20 451 10 451L0 451Z" fill="#d15774"></path><path d="M0 376L10 368.7C20 361.3 40 346.7 60 343.7C80 340.7 100 349.3 120 354.7C140 360 160 362 180 360.7C200 359.3 220 354.7 240 355.5C260 356.3 280 362.7 300 365.7C320 368.7 340 368.3 360 366.7C380 365 400 362 420 354.5C440 347 460 335 480 331.2C500 327.3 520 331.7 540 340.3C560 349 580 362 600 366.3C620 370.7 640 366.3 660 363C680 359.7 700 357.3 720 351.3C740 345.3 760 335.7 780 339.7C800 343.7 820 361.3 840 364C860 366.7 880 354.3 890 348.2L900 342L900 451L890 451C880 451 860 451 840 451C820 451 800 451 780 451C760 451 740 451 720 451C700 451 680 451 660 451C640 451 620 451 600 451C580 451 560 451 540 451C520 451 500 451 480 451C460 451 440 451 420 451C400 451 380 451 360 451C340 451 320 451 300 451C280 451 260 451 240 451C220 451 200 451 180 451C160 451 140 451 120 451C100 451 80 451 60 451C40 451 20 451 10 451L0 451Z" fill="#b84d76"></path><path d="M0 341L10 348.2C20 355.3 40 369.7 60 370C80 370.3 100 356.7 120 352.8C140 349 160 355 180 358.3C200 361.7 220 362.3 240 362.7C260 363 280 363 300 360.8C320 358.7 340 354.3 360 354.3C380 354.3 400 358.7 420 363.5C440 368.3 460 373.7 480 376.3C500 379 520 379 540 380.5C560 382 580 385 600 384.5C620 384 640 380 660 379.7C680 379.3 700 382.7 720 384.5C740 386.3 760 386.7 780 385.2C800 383.7 820 380.3 840 374.3C860 368.3 880 359.7 890 355.3L900 351L900 451L890 451C880 451 860 451 840 451C820 451 800 451 780 451C760 451 740 451 720 451C700 451 680 451 660 451C640 451 620 451 600 451C580 451 560 451 540 451C520 451 500 451 480 451C460 451 440 451 420 451C400 451 380 451 360 451C340 451 320 451 300 451C280 451 260 451 240 451C220 451 200 451 180 451C160 451 140 451 120 451C100 451 80 451 60 451C40 451 20 451 10 451L0 451Z" fill="#9e4675"></path><path d="M0 361L10 366.8C20 372.7 40 384.3 60 388.7C80 393 100 390 120 389.7C140 389.3 160 391.7 180 392.7C200 393.7 220 393.3 240 392.5C260 391.7 280 390.3 300 388.5C320 386.7 340 384.3 360 380.5C380 376.7 400 371.3 420 366.2C440 361 460 356 480 353.2C500 350.3 520 349.7 540 354.2C560 358.7 580 368.3 600 371.2C620 374 640 370 660 370C680 370 700 374 720 374.7C740 375.3 760 372.7 780 372.8C800 373 820 376 840 372.8C860 369.7 880 360.3 890 355.7L900 351L900 451L890 451C880 451 860 451 840 451C820 451 800 451 780 451C760 451 740 451 720 451C700 451 680 451 660 451C640 451 620 451 600 451C580 451 560 451 540 451C520 451 500 451 480 451C460 451 440 451 420 451C400 451 380 451 360 451C340 451 320 451 300 451C280 451 260 451 240 451C220 451 200 451 180 451C160 451 140 451 120 451C100 451 80 451 60 451C40 451 20 451 10 451L0 451Z" fill="#834071"></path><path d="M0 383L10 386.5C20 390 40 397 60 396.7C80 396.3 100 388.7 120 388.3C140 388 160 395 180 393C200 391 220 380 240 374.7C260 369.3 280 369.7 300 370.3C320 371 340 372 360 375.7C380 379.3 400 385.7 420 386.5C440 387.3 460 382.7 480 381.5C500 380.3 520 382.7 540 385.3C560 388 580 391 600 391C620 391 640 388 660 383.5C680 379 700 373 720 372C740 371 760 375 780 374.8C800 374.7 820 370.3 840 370.8C860 371.3 880 376.7 890 379.3L900 382L900 451L890 451C880 451 860 451 840 451C820 451 800 451 780 451C760 451 740 451 720 451C700 451 680 451 660 451C640 451 620 451 600 451C580 451 560 451 540 451C520 451 500 451 480 451C460 451 440 451 420 451C400 451 380 451 360 451C340 451 320 451 300 451C280 451 260 451 240 451C220 451 200 451 180 451C160 451 140 451 120 451C100 451 80 451 60 451C40 451 20 451 10 451L0 451Z" fill="#683a6a"></path><path d="M0 393L10 392.2C20 391.3 40 389.7 60 387.3C80 385 100 382 120 379.8C140 377.7 160 376.3 180 377C200 377.7 220 380.3 240 382.2C260 384 280 385 300 387.3C320 389.7 340 393.3 360 396.8C380 400.3 400 403.7 420 404.8C440 406 460 405 480 402.5C500 400 520 396 540 395.3C560 394.7 580 397.3 600 396.7C620 396 640 392 660 393.5C680 395 700 402 720 400.3C740 398.7 760 388.3 780 382.7C800 377 820 376 840 378.5C860 381 880 387 890 390L900 393L900 451L890 451C880 451 860 451 840 451C820 451 800 451 780 451C760 451 740 451 720 451C700 451 680 451 660 451C640 451 620 451 600 451C580 451 560 451 540 451C520 451 500 451 480 451C460 451 440 451 420 451C400 451 380 451 360 451C340 451 320 451 300 451C280 451 260 451 240 451C220 451 200 451 180 451C160 451 140 451 120 451C100 451 80 451 60 451C40 451 20 451 10 451L0 451Z" fill="#4e3460"></path><path d="M0 388L10 393C20 398 40 408 60 412C80 416 100 414 120 413.7C140 413.3 160 414.7 180 413.3C200 412 220 408 240 405C260 402 280 400 300 399C320 398 340 398 360 401.2C380 404.3 400 410.7 420 414.3C440 418 460 419 480 418.5C500 418 520 416 540 414.5C560 413 580 412 600 410.2C620 408.3 640 405.7 660 403C680 400.3 700 397.7 720 395.7C740 393.7 760 392.3 780 394C800 395.7 820 400.3 840 404C860 407.7 880 410.3 890 411.7L900 413L900 451L890 451C880 451 860 451 840 451C820 451 800 451 780 451C760 451 740 451 720 451C700 451 680 451 660 451C640 451 620 451 600 451C580 451 560 451 540 451C520 451 500 451 480 451C460 451 440 451 420 451C400 451 380 451 360 451C340 451 320 451 300 451C280 451 260 451 240 451C220 451 200 451 180 451C160 451 140 451 120 451C100 451 80 451 60 451C40 451 20 451 10 451L0 451Z" fill="#362c52"></path><path d="M0 411L10 409.5C20 408 40 405 60 406.7C80 408.3 100 414.7 120 414.5C140 414.3 160 407.7 180 407.7C200 407.7 220 414.3 240 418.3C260 422.3 280 423.7 300 424C320 424.3 340 423.7 360 422.5C380 421.3 400 419.7 420 419.7C440 419.7 460 421.3 480 421.3C500 421.3 520 419.7 540 420C560 420.3 580 422.7 600 422.8C620 423 640 421 660 418.7C680 416.3 700 413.7 720 411C740 408.3 760 405.7 780 407.7C800 409.7 820 416.3 840 418.7C860 421 880 419 890 418L900 417L900 451L890 451C880 451 860 451 840 451C820 451 800 451 780 451C760 451 740 451 720 451C700 451 680 451 660 451C640 451 620 451 600 451C580 451 560 451 540 451C520 451 500 451 480 451C460 451 440 451 420 451C400 451 380 451 360 451C340 451 320 451 300 451C280 451 260 451 240 451C220 451 200 451 180 451C160 451 140 451 120 451C100 451 80 451 60 451C40 451 20 451 10 451L0 451Z" fill="#202443"></path><path d="M0 436L10 432.7C20 429.3 40 422.7 60 420.3C80 418 100 420 120 423.3C140 426.7 160 431.3 180 432.8C200 434.3 220 432.7 240 430.3C260 428 280 425 300 425C320 425 340 428 360 428.3C380 428.7 400 426.3 420 424.2C440 422 460 420 480 418.8C500 417.7 520 417.3 540 420.3C560 423.3 580 429.7 600 429.3C620 429 640 422 660 419.2C680 416.3 700 417.7 720 418.5C740 419.3 760 419.7 780 420.3C800 421 820 422 840 422.3C860 422.7 880 422.3 890 422.2L900 422L900 451L890 451C880 451 860 451 840 451C820 451 800 451 780 451C760 451 740 451 720 451C700 451 680 451 660 451C640 451 620 451 600 451C580 451 560 451 540 451C520 451 500 451 480 451C460 451 440 451 420 451C400 451 380 451 360 451C340 451 320 451 300 451C280 451 260 451 240 451C220 451 200 451 180 451C160 451 140 451 120 451C100 451 80 451 60 451C40 451 20 451 10 451L0 451Z" fill="#0e1b33"></path><path d="M0 436L10 436.5C20 437 40 438 60 438.7C80 439.3 100 439.7 120 440.2C140 440.7 160 441.3 180 441C200 440.7 220 439.3 240 438.5C260 437.7 280 437.3 300 437.5C320 437.7 340 438.3 360 436.7C380 435 400 431 420 429.5C440 428 460 429 480 430.5C500 432 520 434 540 435.5C560 437 580 438 600 439.2C620 440.3 640 441.7 660 441.3C680 441 700 439 720 438.5C740 438 760 439 780 438.2C800 437.3 820 434.7 840 435.2C860 435.7 880 439.3 890 441.2L900 443L900 451L890 451C880 451 860 451 840 451C820 451 800 451 780 451C760 451 740 451 720 451C700 451 680 451 660 451C640 451 620 451 600 451C580 451 560 451 540 451C520 451 500 451 480 451C460 451 440 451 420 451C400 451 380 451 360 451C340 451 320 451 300 451C280 451 260 451 240 451C220 451 200 451 180 451C160 451 140 451 120 451C100 451 80 451 60 451C40 451 20 451 10 451L0 451Z" fill="#001122"></path></svg>