<svg id="visual" viewBox="0 0 900 600" width="900" height="600" xmlns="http://www.w3.org/2000/svg" xmlns:xlink="http://www.w3.org/1999/xlink" version="1.1"><path d="M0 514L12.5 515C25 516 50 518 75 517C100 516 125 512 150 512.5C175 513 200 518 225 514.2C250 510.3 275 497.7 300 495.5C325 493.3 350 501.7 375 509.3C400 517 425 524 450 525.8C475 527.7 500 524.3 525 518C550 511.7 575 502.3 600 499.3C625 496.3 650 499.7 675 503.7C700 507.7 725 512.3 750 511.8C775 511.3 800 505.7 825 506.3C850 507 875 514 887.5 517.5L900 521L900 601L887.5 601C875 601 850 601 825 601C800 601 775 601 750 601C725 601 700 601 675 601C650 601 625 601 600 601C575 601 550 601 525 601C500 601 475 601 450 601C425 601 400 601 375 601C350 601 325 601 300 601C275 601 250 601 225 601C200 601 175 601 150 601C125 601 100 601 75 601C50 601 25 601 12.5 601L0 601Z" fill="#EE6055" stroke-linecap="round" stroke-linejoin="miter"></path></svg>